<?xml version="1.0" encoding="iso-8859-1"?>
<!-- Generator: Adobe Illustrator 19.0.0, SVG Export Plug-In . SVG Version: 6.00 Build 0)  -->
<svg version="1.1" id="Layer_1" xmlns="http://www.w3.org/2000/svg" xmlns:xlink="http://www.w3.org/1999/xlink" x="0px" y="0px"
	 viewBox="0 0 511.984 511.984" style="enable-background:new 0 0 511.984 511.984;" xml:space="preserve">
<path style="fill:#434A54;" d="M432.738,386.348l-1.812-0.516c-26.467-7.109-14.093-13.937-25.873-18.421
	c-41.811-15.938-52.685-27.405-55.466-32.827c-0.094-0.188-0.156-0.406-0.25-0.609H150.383c-0.094,0.203-0.172,0.422-0.266,0.609
	c-2.781,5.422-13.656,16.89-55.451,32.827c-11.78,4.484-20.733,11.312-47.201,18.421l-1.828,0.516
	c-24.093,7.968-40.295,30.311-40.295,55.53v70.106h244.506H473.05v-70.106C473.05,416.659,456.832,394.316,432.738,386.348z"/>
<polygon style="fill:#CCD1D9;" points="292.339,322.148 207.88,309.258 172.335,384.364 250.66,511.984 327.962,394.66 "/>
<polygon style="fill:#DA4453;" points="272.807,394.66 228.52,394.66 214.615,447.986 250.66,511.984 286.151,447.986 "/>
<path style="fill:#ED5564;" d="M280.276,361.349l-24.616-40.326c-2.078-3.391-5.875-5.359-9.859-5.078
	c-3.968,0.281-7.453,2.75-9.031,6.406l-18.031,41.623c-0.578,1.344-0.891,2.781-0.891,4.234v26.451
	c0,5.891,4.781,10.655,10.672,10.655h42.67c5.898,0,10.648-4.765,10.648-10.655v-27.747
	C281.839,364.943,281.307,363.021,280.276,361.349z"/>
<path style="fill:#E6E9ED;" d="M175.944,393.144l74.716-40.701l78.677,42.951c0,0,21.75-57.888,20.25-60.81
	c-0.094-0.188-0.156-0.406-0.25-0.609l-0.344-48.545l-99.146-1.125l-99.121,1.125l-0.344,48.545
	c-0.094,0.203-0.172,0.422-0.266,0.609C148.82,337.116,175.944,393.144,175.944,393.144z"/>
<path style="fill:#EAC6BB;" d="M387.396,191.48c0,89.372-85.184,171.619-137.549,171.619c-52.342,0-137.542-82.247-137.542-171.619
	c0-89.371,61.592-148.322,137.542-148.322C325.805,43.158,387.396,102.109,387.396,191.48z"/>
<path style="fill:#965353;" d="M334.962,28.409c-23.405-21.187-104.676-51.623-180.032,0
	c-59.436,40.718-53.436,143.369-53.436,143.369s77.997,19.702,167.321-31.327c57.74-32.999,77.865,0.562,88.208,29.78
	c10.093,28.437,30.373,21.249,30.373,21.249S409.803,96.172,334.962,28.409z"/>
<path style="fill:#7F4242;" d="M309.119,126.827c8.187-0.25,15.03,1.547,20.812,4.75c11.094-40.249,32.937-51.076,42.467-53.936
	c-3.094-6.25-6.719-12.515-10.874-18.718C345.899,65.064,321.274,81.751,309.119,126.827z"/>
<g>
	<polygon style="fill:#656D78;" points="250.66,511.984 150.383,333.975 122.665,367.756 155.226,392.754 149.398,416.753 	"/>
	<polygon style="fill:#656D78;" points="250.66,511.984 349.337,333.975 378.428,367.756 345.899,392.754 351.712,416.753 	"/>
</g>
<path style="fill:#FFCE54;" d="M503.549,366.271l-53.311-53.795c-2-2.016-4.75-3.156-7.594-3.156h-74.653
	c-5.905,0-10.655,4.781-10.655,10.672v181.32c0,5.891,4.75,10.672,10.655,10.672h127.995c5.906,0,10.656-4.781,10.656-10.672V373.77
	C506.642,370.959,505.549,368.256,503.549,366.271z"/>
<path style="fill:#F6BB42;" d="M450.238,312.476c-2-2.016-4.75-3.156-7.594-3.156v64.45h63.998c0-2.812-1.094-5.515-3.094-7.499
	L450.238,312.476z"/>
<g>
</g>
<g>
</g>
<g>
</g>
<g>
</g>
<g>
</g>
<g>
</g>
<g>
</g>
<g>
</g>
<g>
</g>
<g>
</g>
<g>
</g>
<g>
</g>
<g>
</g>
<g>
</g>
<g>
</g>
</svg>
