<svg height="496pt" viewBox="0 0 496.16 496" width="496pt" xmlns="http://www.w3.org/2000/svg"><path d="m40 400.078125v40l-40-40zm0 0" fill="#f5f7fa"/><path d="m112 296.078125v144h-72v-40h-40v-360h112zm0 0" fill="#e6e9ed"/><g fill="#ccd1d9"><path d="m112 160.078125h-56c-4.425781 0-8-3.574219-8-8 0-4.421875 3.574219-8 8-8h56c4.425781 0 8 3.578125 8 8 0 4.425781-3.574219 8-8 8zm0 0"/><path d="m112 208.078125h-56c-4.425781 0-8-3.574219-8-8 0-4.421875 3.574219-8 8-8h56c4.425781 0 8 3.578125 8 8 0 4.425781-3.574219 8-8 8zm0 0"/><path d="m112 256.078125h-56c-4.425781 0-8-3.574219-8-8 0-4.421875 3.574219-8 8-8h56c4.425781 0 8 3.578125 8 8 0 4.425781-3.574219 8-8 8zm0 0"/><path d="m112 304.078125h-56c-4.425781 0-8-3.574219-8-8 0-4.421875 3.574219-8 8-8h56c4.425781 0 8 3.578125 8 8 0 4.425781-3.574219 8-8 8zm0 0"/></g><path d="m496.160156 40.078125v104l-32 32v-136zm0 0" fill="#f6bb42"/><path d="m407.910156 192.078125c0 39.121094-18.71875 73.914063-47.757812 95.832031v-7.757812c0-13.199219-10.71875-24-24-24v.078125h-24.074219v-21.4375c18.960937-8.960938 32-28.242188 32-50.5625h-112c0 22.320312 13.121094 41.601562 32 50.5625v21.4375h-24v-.078125c-13.199219 0-24 10.800781-24 24v7.757812l-.167969.167969c-29.117187-21.839844-48-56.726563-48-96 0-66.238281 53.769532-120 120-120 66.328125 0 120 53.761719 120 120zm0 0" fill="#edab37"/><path d="m343.519531 160.246094h-110.71875c3.832031-27.117188 27.121094-48 55.359375-48 28.152344 0 51.519532 20.882812 55.359375 48zm0 0" fill="#eac6bb"/><path d="m288.078125 240.238281c8.554687 0 16.722656-1.917969 24-5.4375v21.4375l-24.078125 16-23.921875-16v-21.4375c7.28125 3.511719 15.441406 5.4375 24 5.4375zm0 0" fill="#eac6bb"/><path d="m360.160156 280.160156v7.761719c-20.082031 15.199219-45.039062 24.15625-72.25 24.15625-26.957031 0-51.910156-8.957031-72-24l.167969-.167969v-7.757812c0-13.199219 10.800781-24 24-24v.078125h24l23.921875 16 24.078125-16h24.082031v-.078125c13.28125.007812 24 10.800781 24 24.007812zm0 0" fill="#656d78"/><path d="m336.160156 256.160156v.078125h-15.238281c12.910156.425781 23.222656 10.984375 23.222656 23.921875v17.984375c5.617188-2.984375 10.96875-6.410156 16.015625-10.222656v-7.761719c0-13.207031-10.71875-24-24-24zm0 0" fill="#545c66"/><path d="m144 472.078125h288.160156v-24h8c13.28125 0 24-10.726563 24-24v48c0 13.273437-10.71875 24-24 24h-304.160156c-13.28125 0-24-10.726563-24-24 0-13.277344 10.71875-24 24-24h8zm0 0" fill="#f6bb42"/><path d="m144 448.078125h288.160156v24h-288.160156zm0 0" fill="#e6e9ed"/><path d="m112 472.078125v-448c0-13.277344 10.71875-24 24-24h304.160156c13.28125 0 24 10.722656 24 24v400c0 13.273437-10.71875 24-24 24h-304.160156c-13.28125 0-24 10.722656-24 24zm295.910156-280c0-66.238281-53.679687-120-120-120-66.230468 0-120 53.761719-120 120 0 39.273437 18.882813 74.160156 48 96 20.089844 15.042969 45.042969 24 72 24 27.203125 0 52.167969-8.957031 72.242188-24.167969 29.046875-21.917968 47.757812-56.710937 47.757812-95.832031zm0 0" fill="#ffce54"/><path d="m383.992188 360.246094h-192.0625c-4.425782 0-8-3.574219-8-8 0-4.421875 3.574218-8 8-8h192.0625c4.421874 0 8 3.578125 8 8 0 4.425781-3.578126 8-8 8zm0 0" fill="#f6bb42"/><path d="m335.992188 384.238281h-96.046876c-4.425781 0-8-3.574219-8-8 0-4.421875 3.574219-8 8-8h96.046876c4.421874 0 8 3.578125 8 8 0 4.425781-3.578126 8-8 8zm0 0" fill="#f6bb42"/><path d="m336.128906 188.128906c-2.59375 0-5.144531-1.257812-6.679687-3.585937-2.441407-3.6875-1.433594-8.648438 2.253906-11.085938l23.984375-15.855469c3.6875-2.441406 8.640625-1.433593 11.089844 2.253907 2.4375 3.6875 1.429687 8.648437-2.257813 11.089843l-23.984375 15.855469c-1.359375.894531-2.894531 1.328125-4.40625 1.328125zm0 0" fill="#434a54"/><path d="m360.097656 196.222656c-1.53125 0-3.089844-.4375-4.457031-1.359375l-23.984375-16.101562c-3.664062-2.464844-4.640625-7.433594-2.175781-11.105469 2.457031-3.664062 7.429687-4.65625 11.105469-2.175781l23.980468 16.105469c3.664063 2.460937 4.640625 7.429687 2.175782 11.101562-1.535157 2.289062-4.070313 3.535156-6.644532 3.535156zm0 0" fill="#434a54"/><path d="m296.078125 192.246094h48c0 22.320312-13.039063 41.601562-32 50.5625-7.277344 3.511718-15.445313 5.4375-24 5.4375-8.558594 0-16.71875-1.917969-24-5.4375-18.878906-8.960938-32-28.242188-32-50.5625h48l8-8zm0 0" fill="#eac6bb"/><path d="m343.519531 160.246094c-3.832031-27.117188-27.199219-48-55.359375-48-2.726562 0-5.390625.25-8.015625.625 24.472657 3.519531 43.886719 22.871094 47.359375 47.375.488282 2.640625.640625 5.28125.640625 8v7.921875l-.082031 16.078125c0 22.320312-13.039062 41.601562-32 50.5625-4.964844 2.398437-10.359375 3.984375-15.992188 4.800781 2.625.382813 5.28125.636719 8.007813.636719 8.554687 0 16.722656-1.917969 24-5.4375 18.960937-8.960938 32-28.242188 32-50.5625l.082031-16.078125v-7.921875c0-2.71875-.160156-5.359375-.640625-8zm0 0" fill="#d3b1a9"/><path d="m288.078125 184.246094-8 8h-48v-24h.082031c0-2.71875.160156-5.359375.640625-8h110.71875c.488281 2.640625.640625 5.28125.640625 8v7.921875l-.082031 16.078125h-48zm0 0" fill="#656d78"/><path d="m343.519531 160.246094h-16.015625c.488282 2.640625.640625 5.28125.640625 8v7.921875l-.082031 16.078125h16.015625l.082031-16.078125v-7.921875c0-2.71875-.160156-5.359375-.640625-8zm0 0" fill="#545c66"/><path d="m312.335938 176.28125c4.417968 0 8-3.578125 8-8h-16.039063c0 4.421875 3.613281 8 8.039063 8zm0 0" fill="#eac6bb"/><path d="m264.289062 176.28125c4.414063 0 8-3.578125 8-8h-16.042968c0 4.421875 3.625 8 8.042968 8zm0 0" fill="#eac6bb"/></svg>