<svg height="492pt" viewBox="-2 0 492 492.032" width="492pt" xmlns="http://www.w3.org/2000/svg"><path d="m466.359375 275.832031h21.65625v56.128907h-21.65625zm0 0" fill="#545c66"/><path d="m304.015625 440c0 12.871094 10.160156 23.441406 22.886719 24h-134.886719l48-64-16-16 32-32-16-16h32c11.6875 0 22.558594 3.113281 32 8.558594zm0 0" fill="#545c66"/><path d="m96.015625 400 48 64h-136c-4.390625 0-8-3.609375-8-8v-56c0-35.359375 28.640625-64 64-64h32l-16 16 32 32zm0 0" fill="#545c66"/><path d="m143.144531 400 24.871094 64h-24l-48-64 16-16-32-32 32-32 12.488281 32zm0 0" fill="#656d78"/><path d="m211.625 352-18.722656 48-16.886719-40 16-18.800781zm0 0" fill="#e6e9ed"/><path d="m144.015625 341.199219 16 18.800781-16.871094 40-18.640625-48zm0 0" fill="#e6e9ed"/><path d="m168.015625 464 24.886719-64 18.722656-48 12.390625-32 32 32-32 32 16 16-48 64zm0 0" fill="#656d78"/><path d="m192.015625 341.199219-16 18.800781h-16l-16-18.800781 24-13.199219zm0 0" fill="#ed5565"/><path d="m176.015625 360 16.886719 40-24.886719 64-24.871094-64 16.871094-40zm0 0" fill="#da4453"/><path d="m168.015625 312c20.25 0 39.28125-5.046875 56-13.839844v21.839844l-12.390625 32-19.609375-10.800781-24-13.199219-24 13.199219-19.511719 10.800781-12.488281-32v-21.839844c16.71875 8.792969 35.769531 13.839844 56 13.839844zm0 0" fill="#f5f7fa"/><path d="m288.015625 96v48l-32-32s-40 24-88 24-88-24-88-24l-32 32v-40c0-57.527344 46.558594-104 104-104h80v40c30.96875 0 56 25.03125 56 56zm0 0" fill="#965353"/><path d="m288.015625 144v-48c0-30.96875-25.03125-56-56-56v-40h-32v40c0 17.671875 14.328125 32 32 32 13.230469 0 24 10.769531 24 24v16zm0 0" fill="#844747"/><path d="m288.015625 144v48c0 46.078125-25.917969 86.078125-64 106.160156-16.71875 8.800782-35.75 13.839844-56 13.839844-20.230469 0-39.28125-5.046875-56-13.839844-38.078125-20.082031-64-60.082031-64-106.160156v-48l32-32s40 24 88 24 88-24 88-24zm0 0" fill="#eac6bb"/><path d="m256.015625 112-.03125.015625v79.984375c0 46.078125-25.921875 86.078125-64 106.160156-12.214844 6.441406-25.703125 10.832032-39.984375 12.75 5.246094.707032 10.574219 1.097656 16.015625 1.097656 20.25 0 39.28125-5.046874 56-13.839843 38.082031-20.078125 64-60.078125 64-106.160157v-48zm0 0" fill="#d3b1a9"/><path d="m472.015625 275.800781v48.160157h-143.917969c-13.28125 0-24.082031-10.800782-24.082031-24.082032 0-13.277344 10.800781-24.078125 24.082031-24.078125zm0 0" fill="#e6e9ed"/><path d="m480.015625 323.953125v160.078125h-151.917969c-.394531 0-.800781 0-1.1875-.078125-12.734375-.5625-22.886718-11.113281-22.886718-24v-160.082031c0 13.28125 10.800781 24.082031 24.082031 24.082031zm0 0" fill="#656d78"/><path d="m328.078125 331.953125c-17.6875 0-32.0625-14.394531-32.0625-32.066406 0-4.421875 3.578125-8 8-8 4.425781 0 8 3.578125 8 8 0 8.855469 7.199219 16.066406 16.0625 16.066406 4.425781 0 8 3.574219 8 8 0 4.421875-3.574219 8-8 8zm0 0" fill="#656d78"/><path d="m304.015625 307.886719c-4.421875 0-8-3.574219-8-8 0-17.6875 14.375-32.0625 32.0625-32.0625 4.425781 0 8 3.574219 8 8 0 4.421875-3.574219 8-8 8-8.855469 0-16.0625 7.199219-16.0625 16.0625 0 4.425781-3.574219 8-8 8zm0 0" fill="#545c66"/><path d="m480.015625 283.832031h-151.9375c-4.421875 0-8-3.574219-8-8s3.578125-8 8-8h151.9375c4.425781 0 8 3.574219 8 8s-3.574219 8-8 8zm0 0" fill="#545c66"/><g fill="#656d78"><path d="m480.015625 331.953125h-151.9375c-4.421875 0-8-3.578125-8-8 0-4.425781 3.578125-8 8-8h151.9375c4.425781 0 8 3.574219 8 8 0 4.421875-3.574219 8-8 8zm0 0"/><path d="m328.078125 492.03125c-17.6875 0-32.0625-14.390625-32.0625-32.0625 0-4.425781 3.578125-8 8-8 4.425781 0 8 3.574219 8 8 0 8.855469 7.199219 16.0625 16.0625 16.0625 4.425781 0 8 3.578125 8 8 0 4.425781-3.574219 8-8 8zm0 0"/><path d="m480.015625 492.03125h-151.9375c-4.421875 0-8-3.574219-8-8 0-4.421875 3.578125-8 8-8h151.9375c4.425781 0 8 3.578125 8 8 0 4.425781-3.574219 8-8 8zm0 0"/><path d="m304.015625 467.96875c-4.421875 0-8-3.578125-8-8v-160.082031c0-4.421875 3.578125-8 8-8 4.425781 0 8 3.578125 8 8v160.082031c0 4.421875-3.574219 8-8 8zm0 0"/><path d="m480.015625 492.03125c-4.421875 0-8-3.574219-8-8v-160.078125c0-4.425781 3.578125-8 8-8 4.425781 0 8 3.574219 8 8v160.078125c0 4.425781-3.574219 8-8 8zm0 0"/></g><path d="m391.984375 451.96875c-4.425781 0-8-3.578125-8-8v-80c0-4.425781 3.574219-8 8-8 4.421875 0 8 3.574219 8 8v80c0 4.421875-3.578125 8-8 8zm0 0" fill="#f6bb42"/><path d="m423.984375 379.96875h-64c-4.425781 0-8-3.578125-8-8 0-4.425781 3.574219-8 8-8h64c4.421875 0 8 3.574219 8 8 0 4.421875-3.578125 8-8 8zm0 0" fill="#ffce54"/><path d="m431.984375 403.96875h-16c-4.425781 0-8-3.578125-8-8 0-4.425781 3.574219-8 8-8h16c4.421875 0 8 3.574219 8 8 0 4.421875-3.578125 8-8 8zm0 0" fill="#ffce54"/><path d="m367.984375 403.96875h-16c-4.425781 0-8-3.578125-8-8 0-4.425781 3.574219-8 8-8h16c4.421875 0 8 3.574219 8 8 0 4.421875-3.578125 8-8 8zm0 0" fill="#ffce54"/><path d="m423.984375 451.96875h-64c-4.425781 0-8-3.578125-8-8 0-4.425781 3.574219-8 8-8h64c4.421875 0 8 3.574219 8 8 0 4.421875-3.578125 8-8 8zm0 0" fill="#ffce54"/></svg>