<svg height="512pt" viewBox="-64 0 512 512" width="512pt" xmlns="http://www.w3.org/2000/svg"><path d="m368.464844 512h-353.464844c-4.824219 0-9.351562-2.316406-12.167969-6.230469-2.8203122-3.910156-3.585937-8.9375-2.0625-13.511719l36.800781-110.402343c18.472657-55.417969 70.128907-92.65625 128.546876-92.65625h51.230468c58.417969 0 110.074219 37.238281 128.546875 92.65625l36.804688 110.402343c1.523437 4.574219.757812 9.601563-2.0625 13.511719-2.820313 3.914063-7.347657 6.230469-12.171875 6.230469zm0 0" fill="#324150"/><path d="m380.632812 505.769531c2.820313-3.910156 3.585938-8.9375 2.0625-13.511719l-36.800781-110.402343c-18.472656-55.417969-70.128906-92.65625-128.546875-92.65625h-25.617187v222.800781h176.734375c4.824218 0 9.351562-2.316406 12.167968-6.230469zm0 0" fill="#23303c"/><path d="m266.605469 357.859375-64.265625-64.265625c-5.859375-5.859375-15.355469-5.859375-21.214844 0l-64.265625 64.265625c-5.058594 5.054687-5.84375 12.980469-1.875 18.925781l32.132813 48.203125c2.492187 3.738281 6.53125 6.164063 11.003906 6.605469 4.476562.441406 8.90625-1.144531 12.082031-4.320312l21.527344-21.527344 21.527343 21.527344c3.179688 3.179687 7.609376 4.765624 12.085938 4.320312 4.472656-.441406 8.511719-2.867188 11.003906-6.605469l32.132813-48.203125c3.964843-5.945312 3.179687-13.871094-1.875-18.925781zm0 0" fill="#f0f2f4"/><path d="m225.34375 431.59375c4.472656-.441406 8.511719-2.867188 11.003906-6.605469l32.132813-48.199219c3.964843-5.949218 3.179687-13.871093-1.875-18.929687l-64.265625-64.265625c-2.929688-2.929688-6.769532-4.394531-10.609375-4.394531v116.546875l21.527343 21.527344c3.179688 3.179687 7.609376 4.765624 12.085938 4.320312zm0 0" fill="#dee1e5"/><path d="m63.199219 287.066406c-25.988281 0-47.132813-21.144531-47.132813-47.132812 0-25.988282 21.144532-47.132813 47.132813-47.132813s47.132812 21.144531 47.132812 47.132813c0 25.988281-21.144531 47.132812-47.132812 47.132812zm0 0" fill="#cbcfd7"/><path d="m320.265625 287.066406c-25.988281 0-47.132813-21.144531-47.132813-47.132812 0-25.988282 21.144532-47.132813 47.132813-47.132813s47.132813 21.144531 47.132813 47.132813c0 25.988281-21.144532 47.132812-47.132813 47.132812zm0 0" fill="#b9bec8"/><path d="m63.199219 222.800781c-25.988281 0-47.132813-21.144531-47.132813-47.132812s21.144532-47.136719 47.132813-47.136719 47.132812 21.148438 47.132812 47.136719-21.144531 47.132812-47.132812 47.132812zm0 0" fill="#dee1e5"/><path d="m320.265625 222.800781c-25.988281 0-47.132813-21.144531-47.132813-47.132812s21.144532-47.136719 47.132813-47.136719 47.132813 21.148438 47.132813 47.136719-21.144532 47.132812-47.132813 47.132812zm0 0" fill="#cbcfd7"/><path d="m191.730469 319.199219c-61.429688 0-111.398438-49.964844-111.398438-111.382813v-64.285156c0-8.28125 6.714844-15 15-15h192.800781c8.285157 0 15 6.71875 15 15v64.269531c0 61.515625-49.769531 111.398438-111.402343 111.398438zm0 0" fill="#ffdcc8"/><path d="m303.132812 207.800781v-64.269531c0-8.28125-6.714843-15-15-15h-96.402343v190.667969c61.632812 0 111.402343-49.882813 111.402343-111.398438zm0 0" fill="#ffc3b4"/><path d="m320.265625 158.53125h-257.066406c-8.285157 0-15-6.714844-15-15 0-79.140625 64.386719-143.53125 143.53125-143.53125 79.148437 0 143.535156 64.390625 143.535156 143.53125 0 8.285156-6.714844 15-15 15zm0 0" fill="#f0f2f4"/><path d="m335.265625 143.53125c0-79.140625-64.390625-143.53125-143.535156-143.53125v158.53125h128.535156c8.285156 0 15-6.714844 15-15zm0 0" fill="#dee1e5"/></svg>