<?xml version="1.0"?>
<svg xmlns="http://www.w3.org/2000/svg" id="Layer_1" data-name="Layer 1" viewBox="0 0 128 128" width="512" height="512"><title>COURTHOUSE</title><polygon points="64.001 29.938 29.939 49 98.064 49 64.001 29.938" style="fill:#fcf5ec"/><rect x="36.742" y="55.5" width="5.25" height="31.75" style="fill:#fff"/><rect x="53.165" y="55.5" width="5.25" height="31.75" style="fill:#fff"/><rect x="69.588" y="55.5" width="5.25" height="31.75" style="fill:#fff"/><rect x="86.011" y="55.5" width="5.25" height="31.75" style="fill:#fff"/><rect x="34.168" y="49" width="59.667" height="6.5" style="fill:#fff"/><rect x="34.168" y="87.25" width="59.667" height="6.5" style="fill:#fff"/><rect x="29.939" y="93.75" width="68.125" height="4.313" style="fill:#fcf5ec"/><path d="M98.062,92.5H50A1.25,1.25,0,0,0,50,95H96.812v1.813H31.187V95h10.8a1.25,1.25,0,0,0,0-2.5H35.417v-4H93.833a1.25,1.25,0,0,0,0-2.5H92.51V56.75h1.323a1.25,1.25,0,0,0,1.25-1.25V50.25h2.979a1.25,1.25,0,0,0,.61-2.341L64.61,28.847a1.247,1.247,0,0,0-1.221,0L29.327,47.909a1.25,1.25,0,0,0,.61,2.341H92.583v4H34.167a1.25,1.25,0,0,0,0,2.5H35.49V86H34.167a1.25,1.25,0,0,0-1.25,1.25V92.5h-2.98a1.25,1.25,0,0,0-1.25,1.25v4.313a1.25,1.25,0,0,0,1.25,1.25H98.062a1.25,1.25,0,0,0,1.25-1.25V93.75A1.25,1.25,0,0,0,98.062,92.5ZM64,31.37,93.269,47.75H34.73ZM43.24,86V56.75h8.673V86Zm11.173,0V56.75H68.337V86H59.663V61a1.25,1.25,0,1,0-2.5,0V86Zm21.674,0V56.75H84.76V86ZM90.01,56.75V86H87.26V56.75Zm-16.423,0V86h-2.75V56.75Zm-35.6,0h2.75V86H37.99Z" style="fill:#dd9d5c"/></svg>
