<?xml version="1.0" encoding="iso-8859-1"?>
<!-- Generator: Adobe Illustrator 19.0.0, SVG Export Plug-In . SVG Version: 6.00 Build 0)  -->
<svg version="1.1" id="Capa_1" xmlns="http://www.w3.org/2000/svg" xmlns:xlink="http://www.w3.org/1999/xlink" x="0px" y="0px"
	 viewBox="0 0 464.008 464.008" style="enable-background:new 0 0 464.008 464.008;" xml:space="preserve">
<path style="fill:#D83635;" d="M344.063,328.008h-72l-40,40l-40-40h-72c-26.51,0-48,21.49-48,48v88h320v-88
	C392.063,349.499,370.573,328.008,344.063,328.008z"/>
<path style="fill:#4C3D24;" d="M374.287,280.008h-6.224c13.255,0.019,24.015-10.711,24.035-23.965
	c0.001-0.441-0.011-0.882-0.035-1.323c-1.155-13.067-12.245-22.999-25.36-22.712h-6.64V131.624
	c0-68.92-52.968-128.232-121.816-131.472c-70.61-3.415-130.619,51.057-134.035,121.667c-0.1,2.062-0.15,4.125-0.149,6.189v104h-6.64
	c-13.115-0.287-24.205,9.645-25.36,22.712c-0.711,13.236,9.442,24.542,22.677,25.253c0.44,0.024,0.882,0.035,1.323,0.035h-8
	c-26.249-0.086-47.667,20.993-48,47.24c-0.144,25.552,7.048,46.576,32,48.568v16.192c0,17.673,14.327,32,32,32h37.984
	c26.448,0.412,48.513-20.111,50.016-46.52c0.817-26.497-20-48.64-46.497-49.457c-0.501-0.015-1.002-0.023-1.503-0.023h200
	c20.324,0.02,38.433,12.838,45.208,32h0.072c18.869,0.241,34.361-14.86,34.602-33.729c0.011-0.824-0.009-1.649-0.058-2.471
	c-0.151-1.752-0.391-3.496-0.72-5.224C418.138,295.727,397.687,279.587,374.287,280.008z"/>
<path style="fill:#F2DBC0;" d="M320.063,168.008v-24h-7.016c-14.682-0.002-27.48-9.996-31.04-24.24l-17.944-63.76l-16.424,57.704
	c-4.45,17.795-20.433,30.283-38.776,30.296h-64.8v48c0.007,33.053,18.551,63.31,48,78.32l0,0v57.68l40,64l40-64v-57.68l0,0
	c29.449-15.01,47.993-45.267,48-78.32V168.008z"/>
<g>
	<path style="fill:#BFEAEF;" d="M160.063,208.008h32c8.837,0,16-7.163,16-16v-24h-64v24
		C144.063,200.845,151.226,208.008,160.063,208.008z M184.063,176.008c4.418,0,8,3.582,8,8s-3.582,8-8,8s-8-3.582-8-8
		S179.645,176.008,184.063,176.008z"/>
	<path style="fill:#BFEAEF;" d="M256.063,176.008v16c0,8.837,7.163,16,16,16h32c8.837,0,16-7.163,16-16v-24h-64V176.008z
		 M280.063,176.008c4.418,0,8,3.582,8,8s-3.582,8-8,8s-8-3.582-8-8S275.645,176.008,280.063,176.008z"/>
</g>
<g>
	<path style="fill:#30271F;" d="M320.063,160.008h-64c-4.418,0-8,3.582-8,8h-32c0-4.418-3.582-8-8-8h-64c-4.418,0-8,3.582-8,8v24
		c0,13.255,10.745,24,24,24h32c13.255,0,24-10.745,24-24v-8h32v8c0,13.255,10.745,24,24,24h32c13.255,0,24-10.745,24-24v-24
		C328.063,163.59,324.481,160.008,320.063,160.008z M200.063,192.008c0,4.418-3.582,8-8,8h-32c-4.418,0-8-3.582-8-8v-16h48V192.008z
		 M312.063,192.008c0,4.418-3.582,8-8,8h-32c-4.418,0-8-3.582-8-8v-16h48V192.008z"/>
	<path style="fill:#30271F;" d="M184.063,198.008c-7.732,0-14-6.268-14-14s6.268-14,14-14s14,6.268,14,14
		C198.054,191.737,191.791,197.999,184.063,198.008z M184.063,182.008c-1.105,0-2,0.895-2,2c0,2.2,4,2.2,4,0
		C186.063,182.904,185.167,182.008,184.063,182.008z"/>
	<path style="fill:#30271F;" d="M280.063,198.008c-7.732,0-14-6.268-14-14s6.268-14,14-14s14,6.268,14,14
		C294.054,191.737,287.791,197.999,280.063,198.008z M280.063,182.008c-1.105,0-2,0.895-2,2c0,2.2,4,2.2,4,0
		C282.063,182.904,281.167,182.008,280.063,182.008z"/>
</g>
<path style="fill:#F0CAA8;" d="M232.063,254.008c-16.559-0.022-29.978-13.441-30-30h12c0,9.941,8.059,18,18,18s18-8.059,18-18h12
	C262.041,240.568,248.622,253.986,232.063,254.008z"/>
<g>
	<path style="fill:#DBC6AE;" d="M272.063,278.32v-8l0,0c-2.836,1.446-5.75,2.733-8.728,3.856c-0.432,0.168-0.864,0.32-1.304,0.48
		c-2.549,0.928-5.152,1.728-7.808,2.4c-0.72,0.192-1.432,0.384-2.152,0.56c-2.472,0.576-4.992,1.024-7.536,1.384
		c-0.8,0.12-1.6,0.28-2.4,0.376c-6.658,0.811-13.39,0.811-20.048,0c-0.8-0.096-1.6-0.256-2.4-0.376
		c-2.544-0.36-5.064-0.8-7.536-1.384c-0.72-0.176-1.432-0.368-2.152-0.56c-2.667-0.688-5.269-1.488-7.808-2.4
		c-0.44-0.16-0.872-0.312-1.304-0.48c-3.011-1.117-5.957-2.402-8.824-3.848l0,0v8l0,0c2.839,1.439,5.752,2.726,8.728,3.856
		c0.432,0.168,0.864,0.32,1.304,0.48c2.544,0.928,5.152,1.72,7.808,2.4c0.72,0.192,1.432,0.392,2.152,0.56
		c2.472,0.576,4.992,1.016,7.536,1.384c0.8,0.12,1.6,0.28,2.4,0.376c6.658,0.811,13.39,0.811,20.048,0
		c0.8-0.096,1.6-0.256,2.4-0.376c2.544-0.368,5.064-0.8,7.536-1.384c0.72-0.168,1.432-0.368,2.152-0.56
		c2.656-0.696,5.264-1.488,7.808-2.4c0.44-0.16,0.872-0.312,1.304-0.48c3.008-1.126,5.954-2.414,8.824-3.856V278.32z"/>
	<path style="fill:#DBC6AE;" d="M264.063,56.008l-16.424,57.704c-4.45,17.795-20.433,30.283-38.776,30.296h8
		c18.355,0.001,34.355-12.49,38.808-30.296l12.4-43.568L264.063,56.008z"/>
</g>
<g>
</g>
<g>
</g>
<g>
</g>
<g>
</g>
<g>
</g>
<g>
</g>
<g>
</g>
<g>
</g>
<g>
</g>
<g>
</g>
<g>
</g>
<g>
</g>
<g>
</g>
<g>
</g>
<g>
</g>
</svg>
